<svg xmlns="http://www.w3.org/2000/svg" width="24" height="24" viewBox="0 0 24 24" fill="none">
    <defs>
        <linearGradient id="gradient" x1="0%" y1="0%" x2="100%" y2="0%">
            <stop offset="0%" style="stop-color:#a855f7;stop-opacity:1" />
            <stop offset="100%" style="stop-color:#ec4899;stop-opacity:1" />
        </linearGradient>
    </defs>
    <rect width="24" height="24" rx="6" fill="url(#gradient)" />
    <path
        d="M4 14a1 1 0 0 1-.78-1.63l9.9-10.2a.5.5 0 0 1 .86.46l-1.92 6.02A1 1 0 0 0 13 10h7a1 1 0 0 1 .78 1.63l-9.9 10.2a.5.5 0 0 1-.86-.46l1.92-6.02A1 1 0 0 0 11 14z"
        fill="white" stroke="white" stroke-width="1" stroke-linecap="round" stroke-linejoin="round" />
</svg>